# xmcd
#
# Track frame offsets:
#	150
#	14363
#	30540
#	42879
#	56553
#	70955
#	84307
#	97235
#	116026
#	130629
#	145080
#	161481
#	179007
#	193195
#	213030
#	226629
#	237365
#	249111
#	260923
#
# Disc length: 3662 seconds
#
# Revision: 0
# Processed by: cddbd v1.5.1PL0 Copyright (c) Steve Scherf et al.
# Submitted via: dBpowerAMP V4.0
#
DISCID=040e4c13
DTITLE=Lightnin' Wells - Ragtime Millionaire
DYEAR=1997
DGENRE=Blues
TTITLE0=Ragtime Millionaire
TTITLE1=Me and My Dog
TTITLE2=Jivin' Woman Blues
TTITLE3=True Religion
TTITLE4=Oh Babe It Ain't No Lie
TTITLE5=Maple Leaf Rag
TTITLE6=Broad Players Blues
TTITLE7=Weeping Willow
TTITLE8=Smoketown Strut
TTITLE9=I'll Be Coming Home Every Satyrday Night
TTITLE10=Sweet Honey Hole
TTITLE11=Cross The River Jordan
TTITLE12=Come On If You're Comin'
TTITLE13=Blue Day Blues
TTITLE14=Let's Do That Messin' Round
TTITLE15=Skeedle Loo Doo
TTITLE16=Beautiful City
TTITLE17=My Woman's So Sweet
TTITLE18=I'm Busy And You Can't Come In
EXTD=Lightnin' Wells - Ragtime Millionaire
EXTT0=
EXTT1=
EXTT2=
EXTT3=
EXTT4=
EXTT5=
EXTT6=
EXTT7=
EXTT8=
EXTT9=
EXTT10=
EXTT11=
EXTT12=
EXTT13=
EXTT14=
EXTT15=
EXTT16=
EXTT17=
EXTT18=
PLAYORDER=
